Coordinates
version=1
nRows=16
nColumns=40
inDegrees=yes

Units are S.I. units (second, meters, Newtons, ...)
Angles are in degrees.

endheader
time	pelvis_tilt	pelvis_list	pelvis_rotation	pelvis_tx	pelvis_ty	pelvis_tz	hip_flexion_r	hip_adduction_r	hip_rotation_r	knee_angle_r	knee_angle_r_beta	ankle_angle_r	subtalar_angle_r	mtp_angle_r	hip_flexion_l	hip_adduction_l	hip_rotation_l	knee_angle_l	knee_angle_l_beta	ankle_angle_l	subtalar_angle_l	mtp_angle_l	lumbar_extension	lumbar_bending	lumbar_rotation	arm_flex_r	arm_add_r	arm_rot_r	elbow_flex_r	pro_sup_r	wrist_flex_r	wrist_dev_r	arm_flex_l	arm_add_l	arm_rot_l	elbow_flex_l	pro_sup_l	wrist_flex_l	wrist_dev_l
     55.33000000	     -0.88187214	     -4.31672856	      1.84341839	      1.09127375	      0.93191356	      0.43264758	     28.53830114	     -6.66689637	     -4.10415930	     61.47559374	     61.47559374	      1.36728982	    -14.62837020	      1.72432860	     14.22272609	     -3.73306387	     -2.93777541	     24.89242622	     24.89242622	     13.83664049	    -10.57879233	     -0.12036364	    -10.50192411	      6.24478119	      1.31424215	     10.69798301	    -12.11156454	      0.28253504	     30.60621811	     45.81010669	      0.00000000	      0.00000000	     16.88630663	    -14.41099540	      5.79496454	     50.91970004	     46.06891692	      0.00000000	      0.00000000
     55.34328571	     -0.80851330	     -4.27476946	      1.39408115	      1.09025425	      0.93286263	      0.43276322	     28.87415788	     -6.69387942	     -4.15407899	     58.64700428	     58.64700428	      1.60576555	    -14.66318618	      1.61279242	     13.41304602	     -3.75394193	     -3.39938130	     24.28149264	     24.28149264	     13.98770786	    -10.33777725	     -0.08760170	    -10.78055163	      6.24254077	      1.44946865	      9.04034104	    -12.72210898	      0.10982627	     29.48167629	     45.86139820	      0.00000000	      0.00000000	     17.87505914	    -14.66272271	      5.46867830	     52.15000285	     46.12621564	      0.00000000	      0.00000000
     55.35657143	     -0.78466676	     -4.22291811	      0.96460516	      1.08924186	      0.93362934	      0.43289979	     29.07629079	     -6.74746648	     -4.35552036	     55.52405163	     55.52405163	      1.78779534	    -14.62691979	      1.32617825	     12.69427039	     -3.74666747	     -3.85319314	     23.72380269	     23.72380269	     14.11041885	    -10.24678972	     -0.04861765	    -10.96834932	      6.21385815	      1.56793360	      7.39256174	    -13.30389122	     -0.19444306	     28.36427002	     45.92317813	      0.00000000	      0.00000000	     18.76206010	    -14.96536215	      5.06302099	     53.68435823	     46.19334639	      0.00000000	      0.00000000
     55.36985714	     -0.85168444	     -4.22652197	      0.59071235	      1.08816038	      0.93419467	      0.43304136	     29.22404385	     -6.72780020	     -4.62871893	     52.15678886	     52.15678886	      1.90251356	    -14.35164156	      1.28749969	     12.12110082	     -3.77199820	     -4.18078924	     23.21133983	     23.21133983	     14.23182155	    -10.18365242	     -0.01399412	    -11.06634610	      6.24615589	      1.46537382	      5.84022103	    -13.82973135	     -0.46431403	     27.43809643	     45.97356406	      0.00000000	      0.00000000	     19.53889228	    -15.31229070	      4.68525732	     54.92485561	     46.25201282	      0.00000000	      0.00000000
     55.38314286	     -0.82393903	     -4.18069953	      0.20367346	      1.08715497	      0.93478544	      0.43316688	     29.10807214	     -6.68551369	     -4.79668709	     48.55575690	     48.55575690	      1.94945646	    -13.85735712	      1.13103950	     11.43596340	     -3.74318477	     -4.54731362	     22.69729209	     22.69729209	     14.37100789	    -10.06860446	     -0.01830944	    -11.28094847	      6.30729974	      1.59565568	      4.29091795	    -14.38990715	     -0.87403877	     26.45976487	     46.03933756	      0.00000000	      0.00000000	     20.29702619	    -15.51038844	      4.20411708	     56.65113291	     46.32644546	      0.00000000	      0.00000000
     55.39642857	     -0.86306976	     -4.16777581	     -0.14464285	      1.08610027	      0.93516623	      0.43353797	     28.91428290	     -6.59777785	     -5.09213423	     44.76536564	     44.76536564	      1.96471924	    -13.12364757	      0.77932096	     10.87060795	     -3.77547438	     -4.93725901	     22.23608129	     22.23608129	     14.47641139	     -9.91129907	     -0.07447282	    -11.47657648	      6.29615789	      1.69280721	      2.78971468	    -14.86381768	     -1.51449055	     25.59682327	     46.12191050	      0.00000000	      0.00000000	     20.84302229	    -15.79615171	      3.55222339	     58.70556269	     46.41907960	      0.00000000	      0.00000000
     55.40971429	     -1.17369282	     -4.16158508	     -0.45742717	      1.08489839	      0.93500594	      0.43400260	     28.95710348	     -6.46142551	     -5.34699708	     40.94528349	     40.94528349	      1.95096449	    -12.15390274	      0.96257898	     10.70120812	     -3.80416323	     -5.20783871	     21.90985375	     21.90985375	     14.60811932	     -9.85830441	     -0.12683326	    -11.28718822	      6.34181726	      1.42196034	      1.39254375	    -15.19078954	     -1.84007590	     25.03314505	     46.16305269	      0.00000000	      0.00000000	     21.41554126	    -16.29969379	      3.09395200	     59.75832550	     46.47776112	      0.00000000	      0.00000000
     55.42300000	     -1.20710414	     -4.12033380	     -0.75985599	      1.08396376	      0.93511714	      0.43454808	     28.40435303	     -6.36259063	     -5.74928675	     36.73335992	     36.73335992	      1.14508609	    -10.98464410	     -1.48424285	     10.19929186	     -3.82904259	     -5.63470535	     21.57198973	     21.57198973	     14.69136401	     -9.58984463	     -0.52374721	    -11.55952168	      6.31426690	      0.85127964	      0.32067681	    -15.23511824	     -5.23609111	     24.91456969	     46.46929214	      0.00000000	      0.00000000	     20.53640333	    -16.76847116	      0.82577694	     64.26515974	     46.75164094	      0.00000000	      0.00000000
     55.43628571	     -1.40448096	     -4.11989822	     -1.01239175	      1.08289866	      0.93493626	      0.43528078	     28.05575498	     -6.16068481	     -6.09886667	     32.79489383	     32.79489383	      1.18180470	     -9.26495370	     -1.08021065	      9.94855737	     -3.87864279	     -5.84036763	     21.33147624	     21.33147624	     14.85057938	     -9.54508970	     -0.59394480	    -11.50398052	      6.32601616	      0.85785153	     -1.05129366	    -15.62319098	     -5.60207313	     24.36018011	     46.51415831	      0.00000000	      0.00000000	     21.21028741	    -16.95145502	      0.47619923	     65.07408733	     46.80076450	      0.00000000	      0.00000000
     55.44957143	     -1.66923286	     -4.11781201	     -1.24625689	      1.08195974	      0.93456572	      0.43617378	     27.69614040	     -5.92944114	     -6.44673252	     28.99140128	     28.99140128	      1.22375945	     -7.32979650	     -0.59880331	      9.75821846	     -3.93437305	     -6.04899535	     21.07585700	     21.07585700	     15.00817742	     -9.46930868	     -0.68604427	    -11.33941150	      6.37647702	      0.85259925	     -2.40472447	    -15.87595716	     -5.94895260	     24.05091723	     46.54550996	      0.00000000	      0.00000000	     21.69553233	    -17.11549083	      0.10357537	     66.04999240	     46.85139023	      0.00000000	      0.00000000
     55.46285714	     -1.76790613	     -4.07000017	     -1.45730183	      1.08116837	      0.93430099	      0.43723247	     27.13758093	     -5.77299200	     -6.95594601	     25.50212744	     25.50212744	      1.33213100	     -4.93803640	     -0.04436764	      9.39280436	     -3.95805524	     -6.27795759	     20.85724409	     20.85724409	     15.19593454	     -9.34790182	     -0.85107803	    -11.39305798	      6.32399635	      0.92096656	     -3.86359783	    -16.16296220	     -6.49918272	     24.04383756	     46.57942310	      0.00000000	      0.00000000	     22.06064959	    -17.22582646	     -0.43275851	     67.44849294	     46.92150122	      0.00000000	      0.00000000
     55.47614286	     -1.94439407	     -3.96383825	     -1.67085675	      1.08047520	      0.93382520	      0.43844925	     26.83749555	     -5.70027928	     -7.52404929	     22.77366459	     22.77366459	      1.89016857	     -2.33835516	      1.66893812	      9.09100621	     -3.91647663	     -6.48315678	     20.59293278	     20.59293278	     15.22597590	     -9.34284720	     -1.30911596	    -11.40681829	      6.21908759	      0.70027441	     -5.56153881	    -16.11105275	     -9.06680123	     25.80405508	     46.69281061	      0.00000000	      0.00000000	     21.65526225	    -17.39887880	     -1.88330263	     70.06275616	     47.10100388	      0.00000000	      0.00000000
     55.48942857	     -2.08359868	     -3.91029091	     -1.84965964	      1.07989604	      0.93343296	      0.43993026	     26.41612720	     -5.47325915	     -7.90163331	     20.34056527	     20.34056527	      2.00367621	     -0.55828981	      2.36949291	      8.75529533	     -3.94494383	     -6.62282870	     20.36503120	     20.36503120	     15.40877346	     -9.30281742	     -1.44002127	    -11.35611213	      6.11916569	      0.78063353	     -6.72331244	    -16.20367550	     -9.42229911	     25.56009072	     46.71884981	      0.00000000	      0.00000000	     22.01562071	    -17.42808039	     -2.12321060	     70.80851142	     47.13903874	      0.00000000	      0.00000000
     55.50271429	     -2.17476455	     -3.81847311	     -2.02263930	      1.07948434	      0.93309019	      0.44148642	     26.06010521	     -5.33494587	     -8.40609039	     18.65733536	     18.65733536	      2.28596226	      1.16300436	      3.14656003	      8.32902828	     -3.92608506	     -6.78066184	     20.07875404	     20.07875404	     15.54908233	     -9.26089541	     -1.61162494	    -11.32905001	      6.06566189	      0.86820667	     -7.89877869	    -16.20691281	     -9.92128701	     25.66882267	     46.73896182	      0.00000000	      0.00000000	     22.18362446	    -17.47269239	     -2.49116518	     71.78950770	     47.18975873	      0.00000000	      0.00000000
     55.51600000	     -2.34872495	     -3.70551271	     -2.18675267	      1.07908388	      0.93230848	      0.44338115	     26.21413438	     -5.16435252	     -8.34536749	     18.26575212	     18.26575212	      2.57716822	      1.37922421	      3.15673272	      8.10237555	     -3.91503850	     -6.88187292	     20.01852702	     20.01852702	     15.86015323	     -9.36976692	     -1.72008843	    -11.12812987	      5.90947950	      0.59497142	     -8.43917205	    -16.17363468	     -9.97110468	     25.52672781	     46.74348694	      0.00000000	      0.00000000	     22.34952559	    -17.61482875	     -2.58643389	     71.92873716	     47.20048298	      0.00000000	      0.00000000
     55.52928571	     -2.40877549	     -3.65544607	     -2.32454970	      1.07904450	      0.93239185	      0.44528803	     25.60590671	     -4.99929225	     -9.11437293	     17.28306991	     17.28306991	      2.81542992	      2.83539912	      3.74264122	      7.44788552	     -3.94177182	     -7.02482928	     19.39891766	     19.39891766	     15.82206416	     -9.14497395	     -1.86236268	    -11.12355980	      5.85967873	      0.94553927	     -9.71879046	    -16.00795686	    -10.50145688	     25.82442821	     46.75546046	      0.00000000	      0.00000000	     22.21925463	    -17.48455386	     -3.08916844	     73.22100706	     47.26467631	      0.00000000	      0.00000000
